# xmcd
#
# Track frame offsets:
#	150
#	19989
#	41748
#	60523
#	79118
#	102987
#	124797
#	149120
#	170515
#	188798
#
# Disc length: 2760 seconds
#
# Revision: 0
# Processed by: cddbd v1.5.2PL0 Copyright (c) Steve Scherf et al.
# Submitted via: dBpowerAMP V4.0
#
DISCID=8d0ac60a
DTITLE=rabah asma - alolou
DYEAR=2004
DGENRE=Classical
TTITLE0=awid afus im
TTITLE1=wsrth
TTITLE2=wsdfh
TTITLE3=srth
TTITLE4=wsreth
TTITLE5=wqtrh
TTITLE6=qwrsth
TTITLE7=cg,hk
TTITLE8=dtj
TTITLE9=dtyj
EXTD=a loulou\nrabah\n
EXTT0=
EXTT1=
EXTT2=
EXTT3=
EXTT4=
EXTT5=
EXTT6=
EXTT7=
EXTT8=
EXTT9=
PLAYORDER=
